<?xml version="1.0" encoding="UTF-8" standalone="no"?>
<!DOCTYPE svg PUBLIC "-//W3C//DTD SVG 1.1//EN"
 "http://www.w3.org/Graphics/SVG/1.1/DTD/svg11.dtd">
<!-- Generated by graphviz version 2.40.1 (20161225.0304)
 -->
<!-- Title: dependencies Pages: 1 -->
<svg width="504pt" height="284pt"
 viewBox="0.00 0.00 504.00 284.00" xmlns="http://www.w3.org/2000/svg" xmlns:xlink="http://www.w3.org/1999/xlink">
<g id="graph0" class="graph" transform="scale(1 1) rotate(0) translate(4 280)">
<title>dependencies</title>
<polygon fill="#ffffff" stroke="transparent" points="-4,4 -4,-280 500,-280 500,4 -4,4"/>
<text text-anchor="start" x="227.0091" y="-42.4" font-family="sans-serif" font-weight="bold" font-size="14.00" fill="#000000">Legend</text>
<polygon fill="#ffffb3" stroke="transparent" points="14,-10 14,-30 34,-30 34,-10 14,-10"/>
<text text-anchor="start" x="37.629" y="-15.4" font-family="sans-serif" font-size="14.00" fill="#000000"> &#160;Declarations</text>
<polygon fill="#8dd3c7" stroke="transparent" points="127,-10 127,-30 147,-30 147,-10 127,-10"/>
<text text-anchor="start" x="150.7251" y="-15.4" font-family="sans-serif" font-size="14.00" fill="#000000"> &#160;Module</text>
<polygon fill="#80b1d3" stroke="transparent" points="213,-10 213,-30 233,-30 233,-10 213,-10"/>
<text text-anchor="start" x="236.7812" y="-15.4" font-family="sans-serif" font-size="14.00" fill="#000000"> &#160;Bootstrap</text>
<polygon fill="#fdb462" stroke="transparent" points="310,-10 310,-30 330,-30 330,-10 310,-10"/>
<text text-anchor="start" x="333.6732" y="-15.4" font-family="sans-serif" font-size="14.00" fill="#000000"> &#160;Providers</text>
<polygon fill="#fb8072" stroke="transparent" points="406,-10 406,-30 426,-30 426,-10 406,-10"/>
<text text-anchor="start" x="429.7258" y="-15.4" font-family="sans-serif" font-size="14.00" fill="#000000"> &#160;Exports</text>
<g id="clust1" class="cluster">
<title>cluster_AngularDateTimePickerModule</title>
<polygon fill="none" stroke="#000000" stroke-dasharray="1,5" points="109,-70 109,-268 387,-268 387,-70 109,-70"/>
</g>
<g id="clust2" class="cluster">
<title>cluster_AngularDateTimePickerModule_declarations</title>
<polygon fill="none" stroke="#000000" points="121,-78 121,-130 375,-130 375,-78 121,-78"/>
</g>
<g id="clust6" class="cluster">
<title>cluster_AngularDateTimePickerModule_exports</title>
<polygon fill="none" stroke="#000000" points="117,-208 117,-260 379,-260 379,-208 117,-208"/>
</g>
<!-- ClickOutsideDirective -->
<g id="node1" class="node">
<title>ClickOutsideDirective</title>
<polygon fill="#ffffb3" stroke="#000000" points="366.9622,-122 225.0378,-122 225.0378,-86 366.9622,-86 366.9622,-122"/>
<text text-anchor="middle" x="296" y="-99.8" font-family="Times,serif" font-size="14.00" fill="#000000">ClickOutsideDirective</text>
</g>
<!-- AngularDateTimePickerModule -->
<g id="node3" class="node">
<title>AngularDateTimePickerModule</title>
<polygon fill="#8dd3c7" stroke="#000000" points="346.6601,-187 343.6601,-191 322.6601,-191 319.6601,-187 149.3399,-187 149.3399,-151 346.6601,-151 346.6601,-187"/>
<text text-anchor="middle" x="248" y="-164.8" font-family="Times,serif" font-size="14.00" fill="#000000">AngularDateTimePickerModule</text>
</g>
<!-- ClickOutsideDirective&#45;&gt;AngularDateTimePickerModule -->
<g id="edge1" class="edge">
<title>ClickOutsideDirective&#45;&gt;AngularDateTimePickerModule</title>
<path fill="none" stroke="#000000" d="M285.7995,-122.1061C285.7995,-122.1061 285.7995,-140.991 285.7995,-140.991"/>
<polygon fill="#000000" stroke="#000000" points="282.2995,-140.9909 285.7995,-150.991 289.2995,-140.991 282.2995,-140.9909"/>
</g>
<!-- DatePicker -->
<g id="node2" class="node">
<title>DatePicker</title>
<polygon fill="#ffffb3" stroke="#000000" points="207.1896,-122 128.8104,-122 128.8104,-86 207.1896,-86 207.1896,-122"/>
<text text-anchor="middle" x="168" y="-99.8" font-family="Times,serif" font-size="14.00" fill="#000000">DatePicker</text>
</g>
<!-- DatePicker&#45;&gt;AngularDateTimePickerModule -->
<g id="edge2" class="edge">
<title>DatePicker&#45;&gt;AngularDateTimePickerModule</title>
<path fill="none" stroke="#000000" d="M178.2574,-122.1061C178.2574,-122.1061 178.2574,-140.991 178.2574,-140.991"/>
<polygon fill="#000000" stroke="#000000" points="174.7574,-140.9909 178.2574,-150.991 181.7574,-140.991 174.7574,-140.9909"/>
</g>
<!-- ClickOutsideDirective  -->
<g id="node4" class="node">
<title>ClickOutsideDirective </title>
<polygon fill="#fb8072" stroke="#000000" points="370.9629,-252 225.0371,-252 225.0371,-216 370.9629,-216 370.9629,-252"/>
<text text-anchor="middle" x="298" y="-229.8" font-family="Times,serif" font-size="14.00" fill="#000000">ClickOutsideDirective </text>
</g>
<!-- AngularDateTimePickerModule&#45;&gt;ClickOutsideDirective  -->
<g id="edge3" class="edge">
<title>AngularDateTimePickerModule&#45;&gt;ClickOutsideDirective </title>
<path fill="none" stroke="#000000" stroke-dasharray="5,2" d="M285.9245,-187.1061C285.9245,-187.1061 285.9245,-205.991 285.9245,-205.991"/>
<polygon fill="#000000" stroke="#000000" points="282.4245,-205.9909 285.9245,-215.991 289.4245,-205.991 282.4245,-205.9909"/>
</g>
<!-- DatePicker  -->
<g id="node5" class="node">
<title>DatePicker </title>
<polygon fill="#fb8072" stroke="#000000" points="206.69,-252 125.31,-252 125.31,-216 206.69,-216 206.69,-252"/>
<text text-anchor="middle" x="166" y="-229.8" font-family="Times,serif" font-size="14.00" fill="#000000">DatePicker </text>
</g>
<!-- AngularDateTimePickerModule&#45;&gt;DatePicker  -->
<g id="edge4" class="edge">
<title>AngularDateTimePickerModule&#45;&gt;DatePicker </title>
<path fill="none" stroke="#000000" stroke-dasharray="5,2" d="M178.1324,-187.1061C178.1324,-187.1061 178.1324,-205.991 178.1324,-205.991"/>
<polygon fill="#000000" stroke="#000000" points="174.6324,-205.9909 178.1324,-215.991 181.6324,-205.991 174.6324,-205.9909"/>
</g>
</g>
</svg>
