<?xml version="1.0" encoding="UTF-8" standalone="no"?>
<!DOCTYPE svg PUBLIC "-//W3C//DTD SVG 1.1//EN"
 "http://www.w3.org/Graphics/SVG/1.1/DTD/svg11.dtd">
<!-- Generated by graphviz version 2.40.1 (20161225.0304)
 -->
<!-- Title: dependencies Pages: 1 -->
<svg width="1606pt" height="355pt"
 viewBox="0.00 0.00 1606.00 355.00" xmlns="http://www.w3.org/2000/svg" xmlns:xlink="http://www.w3.org/1999/xlink">
<g id="graph0" class="graph" transform="scale(1 1) rotate(0) translate(4 351)">
<title>dependencies</title>
<polygon fill="#ffffff" stroke="transparent" points="-4,4 -4,-351 1602,-351 1602,4 -4,4"/>
<text text-anchor="start" x="778.0091" y="-42.4" font-family="sans-serif" font-weight="bold" font-size="14.00" fill="#000000">Legend</text>
<polygon fill="#ffffb3" stroke="transparent" points="565,-10 565,-30 585,-30 585,-10 565,-10"/>
<text text-anchor="start" x="588.629" y="-15.4" font-family="sans-serif" font-size="14.00" fill="#000000"> &#160;Declarations</text>
<polygon fill="#8dd3c7" stroke="transparent" points="678,-10 678,-30 698,-30 698,-10 678,-10"/>
<text text-anchor="start" x="701.7251" y="-15.4" font-family="sans-serif" font-size="14.00" fill="#000000"> &#160;Module</text>
<polygon fill="#80b1d3" stroke="transparent" points="764,-10 764,-30 784,-30 784,-10 764,-10"/>
<text text-anchor="start" x="787.7812" y="-15.4" font-family="sans-serif" font-size="14.00" fill="#000000"> &#160;Bootstrap</text>
<polygon fill="#fdb462" stroke="transparent" points="861,-10 861,-30 881,-30 881,-10 861,-10"/>
<text text-anchor="start" x="884.6732" y="-15.4" font-family="sans-serif" font-size="14.00" fill="#000000"> &#160;Providers</text>
<polygon fill="#fb8072" stroke="transparent" points="957,-10 957,-30 977,-30 977,-10 957,-10"/>
<text text-anchor="start" x="980.7258" y="-15.4" font-family="sans-serif" font-size="14.00" fill="#000000"> &#160;Exports</text>
<g id="clust1" class="cluster">
<title>cluster_AngularDateTimePickerModule</title>
<polygon fill="none" stroke="#000000" stroke-dasharray="1,5" points="8,-70 8,-271 286,-271 286,-70 8,-70"/>
</g>
<g id="clust2" class="cluster">
<title>cluster_AngularDateTimePickerModule_declarations</title>
<polygon fill="none" stroke="#000000" points="20,-78 20,-130 274,-130 274,-78 20,-78"/>
</g>
<g id="clust6" class="cluster">
<title>cluster_AngularDateTimePickerModule_exports</title>
<polygon fill="none" stroke="#000000" points="16,-211 16,-263 278,-263 278,-211 16,-211"/>
</g>
<g id="clust9" class="cluster">
<title>cluster_AppModule</title>
<polygon fill="none" stroke="#000000" stroke-dasharray="1,5" points="294,-138 294,-339 1590,-339 1590,-138 294,-138"/>
</g>
<g id="clust10" class="cluster">
<title>cluster_AppModule_declarations</title>
<polygon fill="none" stroke="#000000" points="448,-146 448,-198 1582,-198 1582,-146 448,-146"/>
</g>
<g id="clust18" class="cluster">
<title>cluster_AppModule_imports</title>
<polygon fill="none" stroke="#000000" points="302,-146 302,-198 440,-198 440,-146 302,-146"/>
</g>
<g id="clust20" class="cluster">
<title>cluster_AppModule_bootstrap</title>
<polygon fill="none" stroke="#000000" points="835,-279 835,-331 959,-331 959,-279 835,-279"/>
</g>
<!-- ClickOutsideDirective -->
<g id="node1" class="node">
<title>ClickOutsideDirective</title>
<polygon fill="#ffffb3" stroke="#000000" points="265.9622,-122 124.0378,-122 124.0378,-86 265.9622,-86 265.9622,-122"/>
<text text-anchor="middle" x="195" y="-99.8" font-family="Times,serif" font-size="14.00" fill="#000000">ClickOutsideDirective</text>
</g>
<!-- AngularDateTimePickerModule -->
<g id="node3" class="node">
<title>AngularDateTimePickerModule</title>
<polygon fill="#8dd3c7" stroke="#000000" points="277.6601,-190 274.6601,-194 253.6601,-194 250.6601,-190 80.3399,-190 80.3399,-154 277.6601,-154 277.6601,-190"/>
<text text-anchor="middle" x="179" y="-167.8" font-family="Times,serif" font-size="14.00" fill="#000000">AngularDateTimePickerModule</text>
</g>
<!-- ClickOutsideDirective&#45;&gt;AngularDateTimePickerModule -->
<g id="edge1" class="edge">
<title>ClickOutsideDirective&#45;&gt;AngularDateTimePickerModule</title>
<path fill="none" stroke="#000000" d="M195,-122.2228C195,-122.2228 195,-143.7269 195,-143.7269"/>
<polygon fill="#000000" stroke="#000000" points="191.5001,-143.7269 195,-153.7269 198.5001,-143.727 191.5001,-143.7269"/>
</g>
<!-- DatePicker -->
<g id="node2" class="node">
<title>DatePicker</title>
<polygon fill="#ffffb3" stroke="#000000" points="106.1896,-122 27.8104,-122 27.8104,-86 106.1896,-86 106.1896,-122"/>
<text text-anchor="middle" x="67" y="-99.8" font-family="Times,serif" font-size="14.00" fill="#000000">DatePicker</text>
</g>
<!-- DatePicker&#45;&gt;AngularDateTimePickerModule -->
<g id="edge2" class="edge">
<title>DatePicker&#45;&gt;AngularDateTimePickerModule</title>
<path fill="none" stroke="#000000" d="M93.2574,-122.2228C93.2574,-122.2228 93.2574,-143.7269 93.2574,-143.7269"/>
<polygon fill="#000000" stroke="#000000" points="89.7574,-143.7269 93.2574,-153.7269 96.7574,-143.727 89.7574,-143.7269"/>
</g>
<!-- ClickOutsideDirective  -->
<g id="node4" class="node">
<title>ClickOutsideDirective </title>
<polygon fill="#fb8072" stroke="#000000" points="269.9629,-255 124.0371,-255 124.0371,-219 269.9629,-219 269.9629,-255"/>
<text text-anchor="middle" x="197" y="-232.8" font-family="Times,serif" font-size="14.00" fill="#000000">ClickOutsideDirective </text>
</g>
<!-- AngularDateTimePickerModule&#45;&gt;ClickOutsideDirective  -->
<g id="edge3" class="edge">
<title>AngularDateTimePickerModule&#45;&gt;ClickOutsideDirective </title>
<path fill="none" stroke="#000000" stroke-dasharray="5,2" d="M197,-190.1061C197,-190.1061 197,-208.991 197,-208.991"/>
<polygon fill="#000000" stroke="#000000" points="193.5001,-208.9909 197,-218.991 200.5001,-208.991 193.5001,-208.9909"/>
</g>
<!-- DatePicker  -->
<g id="node5" class="node">
<title>DatePicker </title>
<polygon fill="#fb8072" stroke="#000000" points="105.69,-255 24.31,-255 24.31,-219 105.69,-219 105.69,-255"/>
<text text-anchor="middle" x="65" y="-232.8" font-family="Times,serif" font-size="14.00" fill="#000000">DatePicker </text>
</g>
<!-- AngularDateTimePickerModule&#45;&gt;DatePicker  -->
<g id="edge4" class="edge">
<title>AngularDateTimePickerModule&#45;&gt;DatePicker </title>
<path fill="none" stroke="#000000" stroke-dasharray="5,2" d="M93.1324,-190.1061C93.1324,-190.1061 93.1324,-208.991 93.1324,-208.991"/>
<polygon fill="#000000" stroke="#000000" points="89.6324,-208.9909 93.1324,-218.991 96.6324,-208.991 89.6324,-208.9909"/>
</g>
<!-- AppModule -->
<g id="node13" class="node">
<title>AppModule</title>
<polygon fill="#8dd3c7" stroke="#000000" points="938.6571,-255 935.6571,-259 914.6571,-259 911.6571,-255 855.3429,-255 855.3429,-219 938.6571,-219 938.6571,-255"/>
<text text-anchor="middle" x="897" y="-232.8" font-family="Times,serif" font-size="14.00" fill="#000000">AppModule</text>
</g>
<!-- AngularDateTimePickerModule&#45;&gt;AppModule -->
<g id="edge12" class="edge">
<title>AngularDateTimePickerModule&#45;&gt;AppModule</title>
<path fill="none" stroke="#000000" d="M273.6555,-190.0109C273.6555,-212.4852 273.6555,-248 273.6555,-248 273.6555,-248 845.1327,-248 845.1327,-248"/>
<polygon fill="#000000" stroke="#000000" points="845.1327,-251.5001 855.1327,-248 845.1327,-244.5001 845.1327,-251.5001"/>
</g>
<!-- AdsenseComponent -->
<g id="node6" class="node">
<title>AdsenseComponent</title>
<polygon fill="#ffffb3" stroke="#000000" points="1574.2576,-190 1445.7424,-190 1445.7424,-154 1574.2576,-154 1574.2576,-190"/>
<text text-anchor="middle" x="1510" y="-167.8" font-family="Times,serif" font-size="14.00" fill="#000000">AdsenseComponent</text>
</g>
<!-- AdsenseComponent&#45;&gt;AppModule -->
<g id="edge5" class="edge">
<title>AdsenseComponent&#45;&gt;AppModule</title>
<path fill="none" stroke="#000000" d="M1510,-190.0109C1510,-212.4852 1510,-248 1510,-248 1510,-248 949.134,-248 949.134,-248"/>
<polygon fill="#000000" stroke="#000000" points="949.134,-244.5001 939.134,-248 949.1339,-251.5001 949.134,-244.5001"/>
</g>
<!-- AppComponent -->
<g id="node7" class="node">
<title>AppComponent</title>
<polygon fill="#ffffb3" stroke="#000000" points="1427.9399,-190 1322.0601,-190 1322.0601,-154 1427.9399,-154 1427.9399,-190"/>
<text text-anchor="middle" x="1375" y="-167.8" font-family="Times,serif" font-size="14.00" fill="#000000">AppComponent</text>
</g>
<!-- AppComponent&#45;&gt;AppModule -->
<g id="edge6" class="edge">
<title>AppComponent&#45;&gt;AppModule</title>
<path fill="none" stroke="#000000" d="M1375,-190.1289C1375,-210.5724 1375,-241 1375,-241 1375,-241 949.0004,-241 949.0004,-241"/>
<polygon fill="#000000" stroke="#000000" points="949.0004,-237.5001 939.0004,-241 949.0003,-244.5001 949.0004,-237.5001"/>
</g>
<!-- DatePickerExample -->
<g id="node8" class="node">
<title>DatePickerExample</title>
<polygon fill="#ffffb3" stroke="#000000" points="1303.9524,-190 1176.0476,-190 1176.0476,-154 1303.9524,-154 1303.9524,-190"/>
<text text-anchor="middle" x="1240" y="-167.8" font-family="Times,serif" font-size="14.00" fill="#000000">DatePickerExample</text>
</g>
<!-- DatePickerExample&#45;&gt;AppModule -->
<g id="edge7" class="edge">
<title>DatePickerExample&#45;&gt;AppModule</title>
<path fill="none" stroke="#000000" d="M1240,-190.2667C1240,-208.5552 1240,-234 1240,-234 1240,-234 948.7156,-234 948.7156,-234"/>
<polygon fill="#000000" stroke="#000000" points="948.7157,-230.5001 938.7156,-234 948.7156,-237.5001 948.7157,-230.5001"/>
</g>
<!-- DateRangePickerExample -->
<g id="node9" class="node">
<title>DateRangePickerExample</title>
<polygon fill="#ffffb3" stroke="#000000" points="1157.7184,-190 994.2816,-190 994.2816,-154 1157.7184,-154 1157.7184,-190"/>
<text text-anchor="middle" x="1076" y="-167.8" font-family="Times,serif" font-size="14.00" fill="#000000">DateRangePickerExample</text>
</g>
<!-- DateRangePickerExample&#45;&gt;AppModule -->
<g id="edge8" class="edge">
<title>DateRangePickerExample&#45;&gt;AppModule</title>
<path fill="none" stroke="#000000" d="M1076,-190.0091C1076,-206.0494 1076,-227 1076,-227 1076,-227 948.9675,-227 948.9675,-227"/>
<polygon fill="#000000" stroke="#000000" points="948.9676,-223.5001 938.9675,-227 948.9675,-230.5001 948.9676,-223.5001"/>
</g>
<!-- DateTimePickerExample -->
<g id="node10" class="node">
<title>DateTimePickerExample</title>
<polygon fill="#ffffb3" stroke="#000000" points="975.5016,-190 818.4984,-190 818.4984,-154 975.5016,-154 975.5016,-190"/>
<text text-anchor="middle" x="897" y="-167.8" font-family="Times,serif" font-size="14.00" fill="#000000">DateTimePickerExample</text>
</g>
<!-- DateTimePickerExample&#45;&gt;AppModule -->
<g id="edge9" class="edge">
<title>DateTimePickerExample&#45;&gt;AppModule</title>
<path fill="none" stroke="#000000" d="M897,-190.1061C897,-190.1061 897,-208.991 897,-208.991"/>
<polygon fill="#000000" stroke="#000000" points="893.5001,-208.9909 897,-218.991 900.5001,-208.991 893.5001,-208.9909"/>
</g>
<!-- SimpleDatePickerExample -->
<g id="node11" class="node">
<title>SimpleDatePickerExample</title>
<polygon fill="#ffffb3" stroke="#000000" points="799.6218,-190 632.3782,-190 632.3782,-154 799.6218,-154 799.6218,-190"/>
<text text-anchor="middle" x="716" y="-167.8" font-family="Times,serif" font-size="14.00" fill="#000000">SimpleDatePickerExample</text>
</g>
<!-- SimpleDatePickerExample&#45;&gt;AppModule -->
<g id="edge10" class="edge">
<title>SimpleDatePickerExample&#45;&gt;AppModule</title>
<path fill="none" stroke="#000000" d="M716,-190.0091C716,-206.0494 716,-227 716,-227 716,-227 845.02,-227 845.02,-227"/>
<polygon fill="#000000" stroke="#000000" points="845.0201,-230.5001 855.02,-227 845.02,-223.5001 845.0201,-230.5001"/>
</g>
<!-- UsingWithFormExample -->
<g id="node12" class="node">
<title>UsingWithFormExample</title>
<polygon fill="#ffffb3" stroke="#000000" points="613.5351,-190 456.4649,-190 456.4649,-154 613.5351,-154 613.5351,-190"/>
<text text-anchor="middle" x="535" y="-167.8" font-family="Times,serif" font-size="14.00" fill="#000000">UsingWithFormExample</text>
</g>
<!-- UsingWithFormExample&#45;&gt;AppModule -->
<g id="edge11" class="edge">
<title>UsingWithFormExample&#45;&gt;AppModule</title>
<path fill="none" stroke="#000000" d="M535,-190.2667C535,-208.5552 535,-234 535,-234 535,-234 845.1204,-234 845.1204,-234"/>
<polygon fill="#000000" stroke="#000000" points="845.1204,-237.5001 855.1204,-234 845.1203,-230.5001 845.1204,-237.5001"/>
</g>
<!-- AppComponent  -->
<g id="node15" class="node">
<title>AppComponent </title>
<polygon fill="#80b1d3" stroke="#000000" points="951.439,-323 842.561,-323 842.561,-287 951.439,-287 951.439,-323"/>
<text text-anchor="middle" x="897" y="-300.8" font-family="Times,serif" font-size="14.00" fill="#000000">AppComponent </text>
</g>
<!-- AppModule&#45;&gt;AppComponent  -->
<g id="edge14" class="edge">
<title>AppModule&#45;&gt;AppComponent </title>
<path fill="none" stroke="#000000" stroke-dasharray="1,5" d="M897,-255.2228C897,-255.2228 897,-276.7269 897,-276.7269"/>
<polygon fill="#000000" stroke="#000000" points="893.5001,-276.7269 897,-286.7269 900.5001,-276.727 893.5001,-276.7269"/>
</g>
<!-- AppRouterModule -->
<g id="node14" class="node">
<title>AppRouterModule</title>
<polygon fill="#8dd3c7" stroke="#000000" points="431.759,-190 428.759,-194 407.759,-194 404.759,-190 310.241,-190 310.241,-154 431.759,-154 431.759,-190"/>
<text text-anchor="middle" x="371" y="-167.8" font-family="Times,serif" font-size="14.00" fill="#000000">AppRouterModule</text>
</g>
<!-- AppRouterModule&#45;&gt;AppModule -->
<g id="edge13" class="edge">
<title>AppRouterModule&#45;&gt;AppModule</title>
<path fill="none" stroke="#000000" d="M371,-190.1289C371,-210.5724 371,-241 371,-241 371,-241 845.286,-241 845.286,-241"/>
<polygon fill="#000000" stroke="#000000" points="845.286,-244.5001 855.286,-241 845.286,-237.5001 845.286,-244.5001"/>
</g>
</g>
</svg>
