<?xml version="1.0" encoding="UTF-8" standalone="no"?>
<!DOCTYPE svg PUBLIC "-//W3C//DTD SVG 1.1//EN"
 "http://www.w3.org/Graphics/SVG/1.1/DTD/svg11.dtd">
<!-- Generated by graphviz version 2.40.1 (20161225.0304)
 -->
<!-- Title: dependencies Pages: 1 -->
<svg width="1535pt" height="284pt"
 viewBox="0.00 0.00 1535.00 284.00" xmlns="http://www.w3.org/2000/svg" xmlns:xlink="http://www.w3.org/1999/xlink">
<g id="graph0" class="graph" transform="scale(1 1) rotate(0) translate(4 280)">
<title>dependencies</title>
<polygon fill="#ffffff" stroke="transparent" points="-4,4 -4,-280 1531,-280 1531,4 -4,4"/>
<text text-anchor="start" x="742.5091" y="-42.4" font-family="sans-serif" font-weight="bold" font-size="14.00" fill="#000000">Legend</text>
<polygon fill="#ffffb3" stroke="transparent" points="529.5,-10 529.5,-30 549.5,-30 549.5,-10 529.5,-10"/>
<text text-anchor="start" x="553.129" y="-15.4" font-family="sans-serif" font-size="14.00" fill="#000000"> &#160;Declarations</text>
<polygon fill="#8dd3c7" stroke="transparent" points="642.5,-10 642.5,-30 662.5,-30 662.5,-10 642.5,-10"/>
<text text-anchor="start" x="666.2251" y="-15.4" font-family="sans-serif" font-size="14.00" fill="#000000"> &#160;Module</text>
<polygon fill="#80b1d3" stroke="transparent" points="728.5,-10 728.5,-30 748.5,-30 748.5,-10 728.5,-10"/>
<text text-anchor="start" x="752.2812" y="-15.4" font-family="sans-serif" font-size="14.00" fill="#000000"> &#160;Bootstrap</text>
<polygon fill="#fdb462" stroke="transparent" points="825.5,-10 825.5,-30 845.5,-30 845.5,-10 825.5,-10"/>
<text text-anchor="start" x="849.1732" y="-15.4" font-family="sans-serif" font-size="14.00" fill="#000000"> &#160;Providers</text>
<polygon fill="#fb8072" stroke="transparent" points="921.5,-10 921.5,-30 941.5,-30 941.5,-10 921.5,-10"/>
<text text-anchor="start" x="945.2258" y="-15.4" font-family="sans-serif" font-size="14.00" fill="#000000"> &#160;Exports</text>
<g id="clust1" class="cluster">
<title>cluster_AppModule</title>
<polygon fill="none" stroke="#000000" stroke-dasharray="1,5" points="8,-70 8,-268 1519,-268 1519,-70 8,-70"/>
</g>
<g id="clust2" class="cluster">
<title>cluster_AppModule_declarations</title>
<polygon fill="none" stroke="#000000" points="377,-78 377,-130 1511,-130 1511,-78 377,-78"/>
</g>
<g id="clust10" class="cluster">
<title>cluster_AppModule_imports</title>
<polygon fill="none" stroke="#000000" points="16,-78 16,-130 369,-130 369,-78 16,-78"/>
</g>
<g id="clust12" class="cluster">
<title>cluster_AppModule_bootstrap</title>
<polygon fill="none" stroke="#000000" points="764,-208 764,-260 888,-260 888,-208 764,-208"/>
</g>
<!-- AdsenseComponent -->
<g id="node1" class="node">
<title>AdsenseComponent</title>
<polygon fill="#ffffb3" stroke="#000000" points="1503.2576,-122 1374.7424,-122 1374.7424,-86 1503.2576,-86 1503.2576,-122"/>
<text text-anchor="middle" x="1439" y="-99.8" font-family="Times,serif" font-size="14.00" fill="#000000">AdsenseComponent</text>
</g>
<!-- AppModule -->
<g id="node8" class="node">
<title>AppModule</title>
<polygon fill="#8dd3c7" stroke="#000000" points="867.6571,-187 864.6571,-191 843.6571,-191 840.6571,-187 784.3429,-187 784.3429,-151 867.6571,-151 867.6571,-187"/>
<text text-anchor="middle" x="826" y="-164.8" font-family="Times,serif" font-size="14.00" fill="#000000">AppModule</text>
</g>
<!-- AdsenseComponent&#45;&gt;AppModule -->
<g id="edge1" class="edge">
<title>AdsenseComponent&#45;&gt;AppModule</title>
<path fill="none" stroke="#000000" d="M1439,-122.0109C1439,-144.4852 1439,-180 1439,-180 1439,-180 878.134,-180 878.134,-180"/>
<polygon fill="#000000" stroke="#000000" points="878.134,-176.5001 868.134,-180 878.1339,-183.5001 878.134,-176.5001"/>
</g>
<!-- AppComponent -->
<g id="node2" class="node">
<title>AppComponent</title>
<polygon fill="#ffffb3" stroke="#000000" points="1356.9399,-122 1251.0601,-122 1251.0601,-86 1356.9399,-86 1356.9399,-122"/>
<text text-anchor="middle" x="1304" y="-99.8" font-family="Times,serif" font-size="14.00" fill="#000000">AppComponent</text>
</g>
<!-- AppComponent&#45;&gt;AppModule -->
<g id="edge2" class="edge">
<title>AppComponent&#45;&gt;AppModule</title>
<path fill="none" stroke="#000000" d="M1304,-122.1289C1304,-142.5724 1304,-173 1304,-173 1304,-173 878.0004,-173 878.0004,-173"/>
<polygon fill="#000000" stroke="#000000" points="878.0004,-169.5001 868.0004,-173 878.0003,-176.5001 878.0004,-169.5001"/>
</g>
<!-- DatePickerExample -->
<g id="node3" class="node">
<title>DatePickerExample</title>
<polygon fill="#ffffb3" stroke="#000000" points="1232.9524,-122 1105.0476,-122 1105.0476,-86 1232.9524,-86 1232.9524,-122"/>
<text text-anchor="middle" x="1169" y="-99.8" font-family="Times,serif" font-size="14.00" fill="#000000">DatePickerExample</text>
</g>
<!-- DatePickerExample&#45;&gt;AppModule -->
<g id="edge3" class="edge">
<title>DatePickerExample&#45;&gt;AppModule</title>
<path fill="none" stroke="#000000" d="M1169,-122.2667C1169,-140.5552 1169,-166 1169,-166 1169,-166 877.7156,-166 877.7156,-166"/>
<polygon fill="#000000" stroke="#000000" points="877.7157,-162.5001 867.7156,-166 877.7156,-169.5001 877.7157,-162.5001"/>
</g>
<!-- DateRangePickerExample -->
<g id="node4" class="node">
<title>DateRangePickerExample</title>
<polygon fill="#ffffb3" stroke="#000000" points="1086.7184,-122 923.2816,-122 923.2816,-86 1086.7184,-86 1086.7184,-122"/>
<text text-anchor="middle" x="1005" y="-99.8" font-family="Times,serif" font-size="14.00" fill="#000000">DateRangePickerExample</text>
</g>
<!-- DateRangePickerExample&#45;&gt;AppModule -->
<g id="edge4" class="edge">
<title>DateRangePickerExample&#45;&gt;AppModule</title>
<path fill="none" stroke="#000000" d="M1005,-122.0091C1005,-138.0494 1005,-159 1005,-159 1005,-159 877.9675,-159 877.9675,-159"/>
<polygon fill="#000000" stroke="#000000" points="877.9676,-155.5001 867.9675,-159 877.9675,-162.5001 877.9676,-155.5001"/>
</g>
<!-- DateTimePickerExample -->
<g id="node5" class="node">
<title>DateTimePickerExample</title>
<polygon fill="#ffffb3" stroke="#000000" points="904.5016,-122 747.4984,-122 747.4984,-86 904.5016,-86 904.5016,-122"/>
<text text-anchor="middle" x="826" y="-99.8" font-family="Times,serif" font-size="14.00" fill="#000000">DateTimePickerExample</text>
</g>
<!-- DateTimePickerExample&#45;&gt;AppModule -->
<g id="edge5" class="edge">
<title>DateTimePickerExample&#45;&gt;AppModule</title>
<path fill="none" stroke="#000000" d="M826,-122.1061C826,-122.1061 826,-140.991 826,-140.991"/>
<polygon fill="#000000" stroke="#000000" points="822.5001,-140.9909 826,-150.991 829.5001,-140.991 822.5001,-140.9909"/>
</g>
<!-- SimpleDatePickerExample -->
<g id="node6" class="node">
<title>SimpleDatePickerExample</title>
<polygon fill="#ffffb3" stroke="#000000" points="728.6218,-122 561.3782,-122 561.3782,-86 728.6218,-86 728.6218,-122"/>
<text text-anchor="middle" x="645" y="-99.8" font-family="Times,serif" font-size="14.00" fill="#000000">SimpleDatePickerExample</text>
</g>
<!-- SimpleDatePickerExample&#45;&gt;AppModule -->
<g id="edge6" class="edge">
<title>SimpleDatePickerExample&#45;&gt;AppModule</title>
<path fill="none" stroke="#000000" d="M645,-122.0091C645,-138.0494 645,-159 645,-159 645,-159 774.02,-159 774.02,-159"/>
<polygon fill="#000000" stroke="#000000" points="774.0201,-162.5001 784.02,-159 774.02,-155.5001 774.0201,-162.5001"/>
</g>
<!-- UsingWithFormExample -->
<g id="node7" class="node">
<title>UsingWithFormExample</title>
<polygon fill="#ffffb3" stroke="#000000" points="542.5351,-122 385.4649,-122 385.4649,-86 542.5351,-86 542.5351,-122"/>
<text text-anchor="middle" x="464" y="-99.8" font-family="Times,serif" font-size="14.00" fill="#000000">UsingWithFormExample</text>
</g>
<!-- UsingWithFormExample&#45;&gt;AppModule -->
<g id="edge7" class="edge">
<title>UsingWithFormExample&#45;&gt;AppModule</title>
<path fill="none" stroke="#000000" d="M464,-122.2667C464,-140.5552 464,-166 464,-166 464,-166 774.1204,-166 774.1204,-166"/>
<polygon fill="#000000" stroke="#000000" points="774.1204,-169.5001 784.1204,-166 774.1203,-162.5001 774.1204,-169.5001"/>
</g>
<!-- AppComponent  -->
<g id="node11" class="node">
<title>AppComponent </title>
<polygon fill="#80b1d3" stroke="#000000" points="880.439,-252 771.561,-252 771.561,-216 880.439,-216 880.439,-252"/>
<text text-anchor="middle" x="826" y="-229.8" font-family="Times,serif" font-size="14.00" fill="#000000">AppComponent </text>
</g>
<!-- AppModule&#45;&gt;AppComponent  -->
<g id="edge10" class="edge">
<title>AppModule&#45;&gt;AppComponent </title>
<path fill="none" stroke="#000000" stroke-dasharray="1,5" d="M826,-187.1061C826,-187.1061 826,-205.991 826,-205.991"/>
<polygon fill="#000000" stroke="#000000" points="822.5001,-205.9909 826,-215.991 829.5001,-205.991 822.5001,-205.9909"/>
</g>
<!-- AngularDateTimePickerModule -->
<g id="node9" class="node">
<title>AngularDateTimePickerModule</title>
<polygon fill="#8dd3c7" stroke="#000000" points="360.6601,-122 357.6601,-126 336.6601,-126 333.6601,-122 163.3399,-122 163.3399,-86 360.6601,-86 360.6601,-122"/>
<text text-anchor="middle" x="262" y="-99.8" font-family="Times,serif" font-size="14.00" fill="#000000">AngularDateTimePickerModule</text>
</g>
<!-- AngularDateTimePickerModule&#45;&gt;AppModule -->
<g id="edge8" class="edge">
<title>AngularDateTimePickerModule&#45;&gt;AppModule</title>
<path fill="none" stroke="#000000" d="M262,-122.1289C262,-142.5724 262,-173 262,-173 262,-173 774.0691,-173 774.0691,-173"/>
<polygon fill="#000000" stroke="#000000" points="774.0691,-176.5001 784.0691,-173 774.0691,-169.5001 774.0691,-176.5001"/>
</g>
<!-- AppRouterModule -->
<g id="node10" class="node">
<title>AppRouterModule</title>
<polygon fill="#8dd3c7" stroke="#000000" points="145.759,-122 142.759,-126 121.759,-126 118.759,-122 24.241,-122 24.241,-86 145.759,-86 145.759,-122"/>
<text text-anchor="middle" x="85" y="-99.8" font-family="Times,serif" font-size="14.00" fill="#000000">AppRouterModule</text>
</g>
<!-- AppRouterModule&#45;&gt;AppModule -->
<g id="edge9" class="edge">
<title>AppRouterModule&#45;&gt;AppModule</title>
<path fill="none" stroke="#000000" d="M85,-122.0109C85,-144.4852 85,-180 85,-180 85,-180 774.3055,-180 774.3055,-180"/>
<polygon fill="#000000" stroke="#000000" points="774.3056,-183.5001 784.3055,-180 774.3055,-176.5001 774.3056,-183.5001"/>
</g>
</g>
</svg>
